<?xml version="1.0" standalone="no"?>
<!DOCTYPE svg PUBLIC "-//W3C//DTD SVG 20010904//EN"
 "http://www.w3.org/TR/2001/REC-SVG-20010904/DTD/svg10.dtd">
<svg version="1.0" xmlns="http://www.w3.org/2000/svg"
 width="1080.000000pt" height="1080.000000pt" viewBox="0 0 1080.000000 1080.000000"
 preserveAspectRatio="xMidYMid meet">

<g transform="translate(0.000000,1080.000000) scale(0.100000,-0.100000)"
fill="#000000" stroke="none">
<path d="M3374 8533 c-9 -27 -50 -131 -90 -233 -40 -102 -99 -257 -133 -345
-33 -88 -73 -192 -90 -231 l-29 -72 115 -283 c63 -156 162 -401 220 -544 58
-143 147 -363 198 -490 116 -288 315 -776 389 -957 31 -75 56 -142 56 -147 0
-8 -186 -11 -605 -11 l-605 0 -14 -33 c-7 -19 -17 -43 -20 -55 l-7 -22 650 0
651 0 16 -37 c9 -21 49 -119 89 -218 40 -99 137 -337 215 -530 388 -956 397
-980 426 -1117 21 -99 23 -242 5 -318 -44 -183 -204 -349 -400 -415 -86 -29
-247 -61 -358 -71 l-83 -7 0 -53 0 -54 1645 0 c1592 0 1645 1 1654 19 6 10 53
121 105 247 134 326 267 647 336 809 98 234 306 730 490 1175 54 129 146 350
205 490 59 140 144 345 189 455 166 401 259 623 313 750 31 72 88 209 128 305
373 903 530 1239 671 1435 112 157 281 313 416 385 99 53 254 100 381 115 l57
7 0 49 0 49 -1030 0 -1030 0 0 -48 0 -49 103 -6 c335 -20 507 -174 578 -522 7
-33 12 -114 12 -180 -1 -134 -21 -248 -79 -455 -36 -125 -181 -523 -250 -681
-20 -46 -86 -205 -146 -354 -61 -148 -150 -367 -198 -485 -154 -377 -305 -747
-415 -1015 -58 -143 -151 -368 -204 -500 -320 -782 -445 -1084 -525 -1268 -24
-56 -68 -160 -97 -231 -48 -117 -59 -137 -120 -201 -133 -140 -279 -182 -491
-141 -280 55 -495 234 -676 566 -58 107 -206 431 -302 665 -117 282 -261 629
-380 915 -55 135 -149 360 -207 500 -220 533 -295 713 -408 985 -64 154 -163
393 -219 530 -57 138 -146 354 -199 480 -154 371 -288 696 -377 910 -45 110
-112 272 -149 360 -37 88 -73 175 -80 193 l-13 32 -133 0 -133 0 -18 -47z"/>
<path d="M1297 3268 c-54 -112 -189 -330 -264 -426 -192 -246 -382 -378 -618
-427 -38 -8 -89 -15 -112 -15 l-43 0 0 -55 0 -55 1028 2 1027 3 0 49 0 50 -81
12 c-280 40 -478 172 -584 389 -38 78 -70 200 -70 267 0 29 -15 49 -124 157
l-124 123 -35 -74z"/>
</g>
</svg>
