<?xml version="1.0" standalone="no"?>
<!DOCTYPE svg PUBLIC "-//W3C//DTD SVG 20010904//EN"
 "http://www.w3.org/TR/2001/REC-SVG-20010904/DTD/svg10.dtd">
<svg version="1.0" xmlns="http://www.w3.org/2000/svg"
 width="182.000000pt" height="61.000000pt" viewBox="0 0 182.000000 61.000000"
 preserveAspectRatio="xMidYMid meet">

<g transform="translate(0.000000,61.000000) scale(0.100000,-0.100000)"
fill="#000000" stroke="none">
<path d="M250 494 c-14 -37 -13 -44 20 -124 17 -40 28 -75 25 -78 -3 -3 1 -12
9 -21 15 -18 56 -124 56 -146 0 -8 -12 -21 -27 -29 -26 -14 -21 -15 83 -16
l112 0 45 107 c25 60 59 143 77 185 35 86 62 125 94 138 14 6 -3 9 -54 8 -41
0 -67 -2 -58 -5 34 -9 36 -77 4 -146 -8 -18 -36 -84 -62 -147 -25 -63 -51
-118 -58 -122 -41 -27 -70 11 -147 197 -93 225 -93 225 -102 225 -4 0 -12 -12
-17 -26z"/>
<path d="M1420 510 c0 -5 5 -10 10 -10 6 0 10 5 10 10 0 6 -4 10 -10 10 -5 0
-10 -4 -10 -10z"/>
<path d="M901 492 c-6 -11 -8 -22 -3 -24 11 -5 52 -97 52 -118 0 -13 7 -20 20
-20 11 0 20 1 20 3 0 5 -72 171 -75 175 -2 2 -8 -5 -14 -16z"/>
<path d="M1028 438 c7 -7 12 -31 12 -54 0 -24 5 -46 12 -50 8 -5 9 0 5 17 -4
13 -7 41 -7 62 0 28 -4 37 -17 37 -13 0 -14 -3 -5 -12z"/>
<path d="M1106 393 c1 -34 7 -59 13 -61 9 -3 11 13 9 54 -4 76 -23 82 -22 7z"/>
<path d="M1270 429 c8 -14 11 -46 7 -86 -4 -50 -2 -63 10 -63 11 0 13 16 11
82 -3 71 -6 83 -21 86 -16 3 -17 1 -7 -19z"/>
<path d="M1357 420 c13 -27 13 -33 -1 -60 -8 -16 -11 -30 -7 -30 34 0 44 92
12 110 -19 9 -19 8 -4 -20z"/>
<path d="M1420 390 c0 -33 4 -60 10 -60 6 0 10 27 10 60 0 33 -4 60 -10 60 -6
0 -10 -27 -10 -60z"/>
<path d="M1488 389 c3 -39 7 -58 14 -51 12 12 6 104 -7 109 -6 2 -9 -20 -7
-58z"/>
<path d="M1554 434 c10 -9 16 -33 16 -61 0 -26 3 -43 7 -39 11 11 2 100 -10
108 -21 13 -29 8 -13 -8z"/>
<path d="M1170 417 c0 -8 11 -22 25 -31 14 -9 25 -24 25 -33 0 -12 3 -14 11
-6 12 12 -4 53 -21 53 -5 0 -16 7 -24 16 -14 13 -16 13 -16 1z"/>
<path d="M851 373 c0 -6 -4 -20 -7 -30 -5 -14 -4 -15 5 -7 7 7 11 20 8 30 -3
11 -5 14 -6 7z"/>
<path d="M837 258 c6 -7 23 -44 38 -83 35 -89 37 -93 45 -70 4 10 -2 36 -13
58 -10 22 -21 55 -24 73 -5 28 -10 34 -31 34 -18 0 -22 -3 -15 -12z"/>
<path d="M966 255 c4 -8 7 -15 9 -15 1 0 8 7 15 15 10 13 9 15 -8 15 -15 0
-20 -5 -16 -15z"/>
<path d="M1305 213 c-12 -22 -8 -123 6 -123 5 0 9 32 9 70 0 39 -1 70 -3 70
-1 0 -7 -8 -12 -17z"/>
<path d="M1037 182 c-30 -33 -16 -92 21 -92 10 0 10 3 -2 16 -19 18 -21 65 -4
82 7 7 10 12 7 12 -3 0 -13 -8 -22 -18z"/>
<path d="M1155 145 c0 -30 5 -55 10 -55 6 0 10 23 10 52 0 28 -4 53 -10 55 -6
2 -10 -20 -10 -52z"/>
<path d="M1232 169 c5 -16 7 -41 4 -54 -4 -17 -2 -25 6 -25 18 0 11 97 -7 104
-11 4 -11 -1 -3 -25z"/>
<path d="M1372 151 c2 -30 8 -56 13 -58 13 -4 7 88 -7 102 -6 6 -8 -9 -6 -44z"/>
<path d="M1445 145 c0 -37 4 -55 13 -55 8 0 12 18 12 55 0 37 -4 55 -12 55 -9
0 -13 -18 -13 -55z"/>
<path d="M1515 145 c0 -30 5 -55 10 -55 13 0 12 103 -1 107 -5 2 -9 -22 -9
-52z"/>
<path d="M1565 190 c3 -5 8 -10 11 -10 2 0 4 5 4 10 0 6 -5 10 -11 10 -5 0 -7
-4 -4 -10z"/>
<path d="M1096 177 c3 -10 9 -15 12 -12 3 3 0 11 -7 18 -10 9 -11 8 -5 -6z"/>
<path d="M1612 178 c-26 -26 -8 -88 26 -88 10 0 10 4 -3 17 -12 11 -15 25 -10
50 7 36 5 39 -13 21z"/>
<path d="M1676 175 c4 -8 8 -15 10 -15 2 0 4 7 4 15 0 8 -4 15 -10 15 -5 0 -7
-7 -4 -15z"/>
<path d="M1730 167 c0 -7 11 -20 25 -27 14 -7 25 -22 25 -32 0 -11 5 -16 10
-13 19 12 10 33 -25 59 -24 18 -35 23 -35 13z"/>
<path d="M97 124 c-11 -14 -29 -29 -40 -34 -16 -6 0 -9 52 -9 71 -1 73 0 52
17 -11 9 -27 25 -33 34 -12 16 -15 15 -31 -8z"/>
</g>
</svg>
